# xmcd
#
# Track frame offsets:
#	212
#	32180
#	49255
#	70170
#	120295
#	168767
#	213310
#	251045
#	292027
#
# Disc length: 4479 seconds
#
# Revision: 1
# Processed by: cddbd v1.4PL0 Copyright (c) Steve Scherf et al.
# Submitted via: EasyCDDAExtractor 6.0.0.1
#
DISCID=80117d09
DTITLE=Mini - 25 Év Rock
DYEAR=1993
DGENRE=Blues
TTITLE0=Én Akarlak
TTITLE1=Délelött
TTITLE2=Kereszteslovag
TTITLE3=Éjféli Találkozás Béla Bácsival A Csiki Havasok Alatt 1939/'93 jun 29.
TTITLE3=én
TTITLE4=Apák És Fiúk
TTITLE5=Asztalhoz leültem
TTITLE6=Szabad Tangó
TTITLE7=Kell a Barátság
TTITLE8=Gozhajó
EXTD=
EXTT0=
EXTT1=
EXTT2=
EXTT3=
EXTT4=
EXTT5=
EXTT6=
EXTT7=
EXTT8=
PLAYORDER=
